<?xml version="1.0" encoding="UTF-8"?><svg id="Layer_1" xmlns="http://www.w3.org/2000/svg" viewBox="0 0 1024 291.391"><defs><style>.cls-1{fill:#066c80;}.cls-2{fill:#00a9a7;}.cls-3{fill:#72ddd4;}</style></defs><path class="cls-1" d="M12.143,149.311l85.653-.432c.031.512.202,2.337.262,3.063,1.105,13.381,5.547,26.04,13.074,37.087,1.067,1.566,3.422,4.506,3.962,5.183.002.002.221.378.219.381-.136.136-1.252.667-1.537.786-24.256,10.165-47.761,21.94-70.968,34.257-19.466-21.857-30.252-50.997-30.665-80.325Z"/><path class="cls-1" d="M113.912,97.383c-.217.253-.253.361-.484.652-.94,1.182-3.736,5.113-4.795,6.845-5.986,9.79-9.574,21.208-10.576,32.657-.172,1.966-.259,3.937-.282,5.953l-85.786.298c-.156-28.931,9.357-58.037,28.065-80.072.79-.202,12.752,6.317,14.58,7.218,13.689,6.744,27.552,13.362,41.571,19.398,5.704,2.456,11.856,5.031,17.706,7.052Z"/><path class="cls-1" d="M46.893,55.746c17.74-19.127,41.613-33.705,67.451-38.827,1.398-.277,6.291-1.437,7.199-.559,10.068,16.896,21.882,32.766,35.267,47.178.361.388,4.388,4.104,4.155,4.295-16.279,2.617-29.454,11.369-41.158,22.438-.899.85-2.224,2.424-2.352,2.413-24.915-9.74-49.558-21.335-73.164-33.861-.05-.212,2.224-2.671,2.602-3.077Z"/><path class="cls-1" d="M56.59,243.985c-3.239-2.942-6.414-6.198-9.265-9.458l.293-.552c23.291-12.512,46.903-24.507,71.432-34.462.493.421,2.512,2.25,3.214,2.911,11.31,10.652,25.767,18.374,41.126,21.24-.244.407-4.232,4.462-5.616,6.012-12.396,13.885-22.925,29.8-32.312,45.839-.146.292-.352.39-.663.45-1.151.222-6.439-.901-7.95-1.199-22.517-4.444-43.355-15.431-60.259-30.782Z"/><path class="cls-1" d="M222.209,79.197c-.31.317-4.659-2.705-5.355-3.094-14.642-8.184-31.478-11.045-48.124-9.518-15.917-15.096-28.865-32.986-40.46-51.544.188-.27.362-.36.685-.415.894-.153,2.818-.221,3.869-.288,29.681-1.888,58.687,5.32,83.1,22.233,1.775,1.229,5.535,3.628,6.854,5.063.241.262.519.456.541.858-1.579,12.166-2.732,24.474-1.11,36.705Z"/><path class="cls-1" d="M132.144,277.068c-.195-.174,1.727-3.252,1.99-3.688,10.479-17.342,22.665-34.376,37.089-48.544,14.625.131,29.209-1.175,42.455-7.706l10.193-5.739c-1.435,12.259.024,24.592,1.947,36.703-.094.598-.6.881-.985,1.254-1.879,1.824-5.152,4.121-7.352,5.673-24.927,17.579-54.937,24.415-85.338,22.048Z"/><path class="cls-2" d="M104.706,148.757l53.489-.277c.228,9.837,3.411,18.681,8.918,26.693.356.518,2.285,2.57,1.89,2.96-16.359,2.665-32.033,8.339-47.486,14.113-10.435-12.065-16.203-27.503-16.811-43.489Z"/><path class="cls-2" d="M104.705,143.494c-.091-15.766,5.323-31.306,15.157-43.53,15.827,5.256,31.689,11.123,48.307,13.322.076.401-.072.679-.218,1.028-.789,1.886-3.481,5.005-4.637,7.279-3.278,6.45-5.082,14.105-5.12,21.346l-53.489.554Z"/><path class="cls-1" d="M274.034,147.65c.706,36.102-15.301,71.485-41.983,95.336-.4.006-1.171-7.175-1.247-7.904-.697-6.676-1.141-14.1-.554-20.78.169-1.924.975-8.767,2.025-10.032,1.443-1.739,4.187-3.776,5.874-5.625,12.64-13.854,20.349-32.022,20.088-50.996h15.796Z"/><path class="cls-1" d="M258.236,142.386c-.303-21.845-11.169-42.521-27.589-56.521-3.708-12.299-2.361-25.947-1.23-38.6.294.163.615.407.89.624,2.037,1.604,8.784,8.721,11.999,12.461,19.769,23.002,31.143,51.147,31.729,81.759l-15.799.277Z"/><path class="cls-2" d="M198.109,93.958c.018.009-.38.127-.672.233-1.777.647-3.588,1.032-5.425,1.782-4.529,1.849-9.114,4.542-13.01,7.497-1.294.981-4.858,4.55-5.854,4.953-1.444.584-7.82-.934-9.742-1.321-13.498-2.716-26.756-7.049-39.571-11.97,9.55-10.135,21.6-17.937,35.238-21.291,1.521-.374,5.407-1.395,6.745-1.32.986.055,4.732,3.838,5.823,4.729,7.227,5.9,14.942,11.053,23.311,15.21.464.23,3.007,1.422,3.157,1.497Z"/><path class="cls-2" d="M198.653,196.98c.107.49-.142.549-.458.786-1.246.937-4.163,1.983-5.722,2.869-8.742,4.967-16.729,11.169-23.918,18.17-13.285-1.706-25.591-7.139-35.984-15.464-.939-.752-6.949-5.851-6.801-6.497,15.288-6.273,31.175-11.366,47.543-14.015l.671.154c7.012,6.409,15.332,11.847,24.67,13.997Z"/><path class="cls-2" d="M174.822,71.717c17.923-.565,35.577,4.974,49.313,16.503l2.508,6.219c-3.37-.611-6.671-1.707-10.117-1.936-2.104-.14-4.547.248-6.582-.069-2.326-.363-6.951-2.462-9.261-3.487-7.596-3.37-19.605-10.556-25.395-16.451-.239-.243-.431-.579-.465-.779Z"/><path class="cls-2" d="M177.038,219.424c7.322-7.143,16.529-13.498,25.863-17.782,1.764-.81,5.588-2.662,7.321-2.933,1.963-.307,4.301.069,6.319-.055,3.704-.228,7.325-1.191,10.934-1.95-.653,1.448-1.024,3.75-1.726,5.061-1.043,1.947-8.193,6.614-10.381,7.909-11.677,6.909-24.756,9.871-38.329,9.75Z"/><path class="cls-3" d="M164.844,148.204h22.586c.643,0,.369,2.59.418,3.184.733,8.881,3.237,17.693,7.757,25.357-3.617-.516-7.297-.689-10.96-.565-2.193.075-5.432.775-7.486.584-1.496-.139-3.03-2.573-3.951-3.809-5.28-7.085-8.229-15.896-8.365-24.753Z"/><path class="cls-3" d="M164.567,142.938c.546-8.134,2.758-16.06,7.088-22.98.702-1.122,3.005-4.558,3.862-5.282.305-.258.4-.299.812-.299,1.521,0,3.664.53,5.268.585,4.223.143,8.44-.08,12.621-.566-4.385,8.876-6.559,18.61-6.65,28.543h-23.002Z"/><path class="cls-3" d="M200.24,183.479c.292.25.615,1.135,1.044,1.587,2.611,2.75,5.505,5.674,9.008,7.206.16.621-.253.652-.757.751-3.85.762-12.636-2.095-16.334-3.756-1.479-.664-11.161-6.192-11.17-7.115-.003-.299.671-.399.951-.429,2.823-.31,15.29.07,17.257,1.756Z"/><path class="cls-3" d="M181.472,109.403c-.032-.594.968-1.152,1.409-1.499,7.501-5.908,16.709-9.547,26.304-10.135-2.738,2.048-5.278,3.842-7.625,6.367-.635.683-2.661,3.588-3.097,3.831-1.01.563-6.782,1.295-8.264,1.436-2.82.268-5.949.478-8.728,0Z"/><path class="cls-3" d="M372.854,114.768c-2.574,5.404-6.479,9.863-11.718,13.373-5.239,3.511-11.903,5.267-19.991,5.267-11.213,0-20.293-3.63-27.242-10.892-6.948-7.26-10.422-16.755-10.422-28.483,0-12.646,3.547-22.867,10.643-30.661,7.095-7.794,16.213-11.691,27.353-11.691,7.169,0,13.391,1.654,18.667,4.963,5.275,3.309,9.182,7.941,11.719,13.897l-7.941,3.419c-2.28-4.448-5.294-7.839-9.044-10.174-3.75-2.334-8.217-3.502-13.4-3.502-8.236,0-15.009,3.052-20.321,9.154-5.313,6.103-7.969,14.117-7.969,24.044,0,9.375,2.583,16.939,7.748,22.692,5.165,5.754,11.976,8.63,20.432,8.63,5.809,0,10.606-1.269,14.393-3.805,3.786-2.537,6.783-5.937,8.989-10.202l8.106,3.971Z"/><path class="cls-3" d="M423.914,133.407c-11.177,0-20.221-3.686-27.132-11.057-6.912-7.371-10.367-16.994-10.367-28.869,0-12.61,3.575-22.729,10.726-30.358,7.15-7.628,16.516-11.442,28.097-11.442,10.882,0,19.668,3.64,26.36,10.919,6.691,7.279,10.037,16.93,10.037,28.952,0,12.463-3.474,22.555-10.423,30.275-6.948,7.721-16.047,11.581-27.297,11.581ZM423.914,124.859c8.382,0,15.146-2.959,20.293-8.878,5.147-5.919,7.721-13.639,7.721-23.162,0-9.816-2.519-17.692-7.555-23.63-5.037-5.937-11.636-8.906-19.797-8.906-8.493,0-15.358,2.95-20.597,8.851-5.239,5.9-7.858,13.741-7.858,23.52,0,9.596,2.564,17.363,7.693,23.299,5.129,5.938,11.829,8.906,20.101,8.906Z"/><path class="cls-3" d="M560.657,132.083h-9.209v-53.051c0-2.168.018-4.2.055-6.093.037-1.893.092-4.089.166-6.59h-.221c-.295.957-.57,1.784-.826,2.482-.258.699-.59,1.526-.994,2.481l-27.021,60.771h-4.522l-26.966-60.33c-.295-.625-.625-1.378-.993-2.261-.368-.882-.754-1.93-1.158-3.144h-.22c.073,1.324.128,3.043.165,5.156.037,2.115.055,4.66.055,7.638v52.94h-8.934V53.004h12.243l24.264,55.146c.918,2.096,1.654,3.815,2.206,5.156.551,1.343,1.029,2.639,1.434,3.888h.331c.625-1.544,1.277-3.161,1.958-4.853.68-1.691,1.296-3.162,1.847-4.412l24.761-54.926h11.58v79.08Z"/><path class="cls-3" d="M593.562,103.077v29.007h-9.264V53.004h21.728c8.455,0,15.008,2.105,19.659,6.314,4.65,4.21,6.976,10.119,6.976,17.729s-2.583,13.851-7.748,18.722c-5.165,4.872-12.142,7.307-20.928,7.307h-10.423ZM593.562,61.386v33.308h9.706c6.397,0,11.277-1.507,14.642-4.522,3.363-3.014,5.046-7.242,5.046-12.684,0-5.367-1.544-9.393-4.633-12.077-3.088-2.683-7.72-4.025-13.896-4.025h-10.864Z"/><path class="cls-3" d="M634.89,132.083l30.33-79.08h9.596l30.44,79.08h-10.258l-7.996-21.121h-34.245l-7.556,21.121h-10.312ZM655.845,102.581h28.124l-12.793-34.412c-.258-.698-.461-1.286-.607-1.765-.147-.477-.35-1.139-.606-1.985h-.221c-.294.846-.515,1.516-.661,2.013-.147.496-.351,1.075-.606,1.737l-12.629,34.412Z"/><path class="cls-3" d="M783.655,132.083h-11.359l-40.698-63.032c-.588-.882-1.012-1.516-1.269-1.902s-.606-.928-1.048-1.627h-.33c.073.736.128,1.885.165,3.447.036,1.563.055,3.557.055,5.983v57.131h-9.264V53.004h12.021l39.595,62.04c.698,1.103,1.231,1.977,1.6,2.619.367.644.79,1.388,1.269,2.233h.22c-.073-1.103-.129-2.592-.165-4.467-.037-1.875-.055-4.117-.055-6.728v-55.698h9.264v79.08Z"/><path class="cls-3" d="M816.504,132.083h-9.264V53.004h9.264v79.08Z"/><path class="cls-3" d="M872.461,133.407c-11.177,0-20.221-3.686-27.132-11.057-6.912-7.371-10.368-16.994-10.368-28.869,0-12.61,3.575-22.729,10.727-30.358,7.149-7.628,16.516-11.442,28.097-11.442,10.882,0,19.668,3.64,26.36,10.919,6.69,7.279,10.036,16.93,10.036,28.952,0,12.463-3.475,22.555-10.423,30.275-6.948,7.721-16.047,11.581-27.297,11.581ZM872.461,124.859c8.382,0,15.146-2.959,20.294-8.878,5.146-5.919,7.72-13.639,7.72-23.162,0-9.816-2.519-17.692-7.555-23.63-5.037-5.937-11.636-8.906-19.798-8.906-8.492,0-15.357,2.95-20.597,8.851-5.239,5.9-7.858,13.741-7.858,23.52,0,9.596,2.564,17.363,7.693,23.299,5.128,5.938,11.828,8.906,20.101,8.906Z"/><path class="cls-3" d="M992.33,132.083h-11.359l-40.698-63.032c-.588-.882-1.012-1.516-1.269-1.902s-.606-.928-1.048-1.627h-.33c.073.736.128,1.885.165,3.447.036,1.563.055,3.557.055,5.983v57.131h-9.264V53.004h12.021l39.595,62.04c.698,1.103,1.231,1.977,1.6,2.619.367.644.79,1.388,1.269,2.233h.22c-.073-1.103-.129-2.592-.165-4.467-.037-1.875-.055-4.117-.055-6.728v-55.698h9.264v79.08Z"/><path class="cls-3" d="M317.929,241.701h-9.265v-79.08h9.265v79.08Z"/><path class="cls-3" d="M396.848,241.701h-11.36l-40.698-63.032c-.588-.882-1.011-1.516-1.268-1.902-.258-.386-.607-.928-1.048-1.627h-.331c.073.736.128,1.885.166,3.447.036,1.563.055,3.557.055,5.983v57.131h-9.265v-79.08h12.022l39.595,62.04c.698,1.103,1.231,1.977,1.6,2.619.367.644.79,1.388,1.268,2.233h.221c-.074-1.103-.129-2.592-.166-4.467-.037-1.875-.055-4.117-.055-6.728v-55.698h9.265v79.08Z"/><path class="cls-3" d="M460.323,171.004h-22.83v70.697h-9.265v-70.697h-22.775v-8.382h54.87v8.382Z"/><path class="cls-3" d="M511.942,241.701h-41.911v-79.08h40.146v8.382h-30.882v26.305h28.566v8.327h-28.566v27.683h32.646v8.382Z"/><path class="cls-3" d="M567.088,241.701h-41.028v-79.08h9.264v70.697h31.765v8.382Z"/><path class="cls-3" d="M619.146,241.701h-41.028v-79.08h9.264v70.697h31.765v8.382Z"/><path class="cls-3" d="M639.438,241.701h-9.264v-79.08h9.264v79.08Z"/><path class="cls-3" d="M721.607,233.319c-3.86,2.942-8.347,5.294-13.456,7.059-5.11,1.765-10.552,2.647-16.323,2.647-11.435,0-20.606-3.64-27.518-10.919-6.912-7.279-10.368-16.911-10.368-28.897,0-12.499,3.447-22.61,10.341-30.33,6.893-7.721,16.093-11.581,27.601-11.581,6.948,0,12.922,1.416,17.922,4.246,4.999,2.832,8.805,6.802,11.415,11.912l-8.161,3.75c-2.022-3.676-4.835-6.48-8.438-8.41-3.604-1.93-7.85-2.895-12.738-2.895-8.493,0-15.322,3.005-20.487,9.017-5.166,6.011-7.748,13.869-7.748,23.575,0,9.963,2.601,17.785,7.804,23.465,5.201,5.68,12.104,8.52,20.707,8.52,3.786,0,7.426-.496,10.919-1.489,3.492-.993,6.58-2.463,9.265-4.412v-19.301h-18.915v-8.382h28.18v32.426Z"/><path class="cls-3" d="M780.778,241.701h-41.91v-79.08h40.146v8.382h-30.882v26.305h28.566v8.327h-28.566v27.683h32.646v8.382Z"/><path class="cls-3" d="M858.645,241.701h-11.359l-40.698-63.032c-.588-.882-1.012-1.516-1.269-1.902s-.606-.928-1.048-1.627h-.33c.073.736.128,1.885.165,3.447.036,1.563.055,3.557.055,5.983v57.131h-9.264v-79.08h12.021l39.595,62.04c.698,1.103,1.231,1.977,1.6,2.619.367.644.79,1.388,1.269,2.233h.22c-.073-1.103-.129-2.592-.165-4.467-.037-1.875-.055-4.117-.055-6.728v-55.698h9.264v79.08Z"/><path class="cls-3" d="M940.208,224.385c-2.573,5.404-6.479,9.863-11.719,13.373-5.238,3.511-11.902,5.267-19.99,5.267-11.214,0-20.294-3.63-27.242-10.892-6.948-7.26-10.423-16.755-10.423-28.483,0-12.646,3.548-22.867,10.644-30.661,7.095-7.794,16.213-11.691,27.353-11.691,7.169,0,13.391,1.654,18.667,4.963,5.275,3.309,9.182,7.941,11.719,13.897l-7.941,3.419c-2.28-4.448-5.294-7.839-9.044-10.174-3.75-2.334-8.217-3.502-13.4-3.502-8.235,0-15.009,3.052-20.321,9.154-5.313,6.103-7.969,14.117-7.969,24.044,0,9.375,2.582,16.939,7.748,22.692,5.165,5.754,11.976,8.63,20.432,8.63,5.809,0,10.606-1.269,14.394-3.805,3.786-2.537,6.782-5.937,8.988-10.202l8.106,3.971Z"/><path class="cls-3" d="M997.118,241.701h-41.91v-79.08h40.146v8.382h-30.882v26.305h28.566v8.327h-28.566v27.683h32.646v8.382Z"/></svg>